<svg viewBox="0 0 169 26" xmlns="http://www.w3.org/2000/svg" xmlns:xlink="http://www.w3.org/1999/xlink" width="169.000000" height="26.000000" fill="none">
	<rect id="svg 3" width="169.000000" height="26.000000" x="0.000000" y="0.000000" />
	<g id="yt-logo">
		<path id="Vector 907" d="M40 26C47.176 26 53 20.176 53 13C53 5.824 47.176 0 40 0C32.824 0 27 5.824 27 13C27 20.176 32.824 26 40 26Z" fill="rgb(180,150,202)" fill-rule="evenodd" />
		<path id="Vector 908" d="M40 20.5C35.8561 20.5 32.5 17.1439 32.5 13C32.5 8.85614 35.8561 5.5 40 5.5C44.1439 5.5 47.5 8.85614 47.5 13C47.5 17.1439 44.1439 20.5 40 20.5Z" fill-rule="evenodd" stroke="rgb(255,255,255)" stroke-width="1.000000" />
		<path id="Vector 909" d="M44.75 13L37.25 8.75L37.25 17.25L44.75 13Z" fill="rgb(255,255,255)" fill-rule="evenodd" />
	</g>
	<g id="entire-moon">
		<g id="moon-itself">
			<path id="moon-fragment" d="M8.91499 11.9619C9.0058 12.1473 9.1177 12.5084 9.19196 12.7147C9.34836 13.1604 9.52066 13.6003 9.70853 14.0337C10.607 16.1281 12.2248 17.8326 14.27 18.8397C14.5385 18.9747 14.8129 19.0977 15.0925 19.2082C15.3196 19.2966 15.5522 19.3754 15.7721 19.4797C15.9281 19.5319 16.1456 19.795 16.0929 19.9766C15.9582 20.4413 15.6038 21.0448 15.3842 21.4667L14.4013 23.3558L13.6826 24.7184C12.982 26.0645 13.0695 26.1222 11.4985 25.9028C11.3462 25.8894 11.1945 25.8623 11.0438 25.8373C9.65134 25.6064 5.94139 24.5184 5.11346 23.3422C4.93511 23.0888 4.81553 22.791 4.70168 22.5042C4.17632 21.1941 4.02975 19.7628 4.27867 18.3734C4.69989 16.0612 6.13186 14.0581 7.96615 12.6391C8.27404 12.4009 8.59498 12.1832 8.91499 11.9619Z" fill="rgb(180,150,202)" fill-rule="nonzero" />
			<path id="moon-fragment-2" d="M12.8159 0.0229676C14.0132 -0.0558496 15.5935 0.0694861 16.7548 0.378945C16.8262 0.397999 16.9381 0.430745 16.9707 0.49327C16.962 0.5133 16.9535 0.53337 16.9449 0.55344C16.7031 0.633882 16.2791 0.736872 16.0503 0.807929C14.7861 1.20031 13.5076 1.96325 12.5346 2.85941C10.8416 4.43453 9.68152 6.49767 9.21559 8.76216C9.09609 9.35809 9.03504 10.0342 9.00979 10.6406C8.5344 10.8767 7.82772 11.475 7.42089 10.987C7.27753 10.7231 7.12446 10.3558 6.99825 10.076C6.7338 9.50333 6.47956 8.92601 6.2356 8.34439C6.08253 7.98569 5.9184 7.60879 5.74915 7.2594C5.63725 7.02839 5.17681 6.74542 4.9565 6.5873L3.83125 5.76333C3.3237 5.39046 2.61662 5.09221 3.20688 4.43291C5.73195 1.61247 9.08694 0.254178 12.8159 0.0229676Z" fill="rgb(180,150,202)" fill-rule="nonzero" />
			<path id="moon-fragment-3" d="M25.9895 16.835C25.993 16.8476 25.9965 16.8603 26 16.8729C25.4973 18.2489 25.0559 19.2072 24.1963 20.4189C22.1978 23.2892 19.125 25.2318 15.6741 25.8067C15.5327 25.8305 14.9773 25.9236 14.8937 25.8643C14.7802 25.6639 14.756 25.5628 14.8605 25.3427C14.9638 25.1252 15.0806 24.9145 15.1865 24.6983L16.228 22.6064L16.959 21.1423C17.051 20.9567 17.1714 20.7295 17.2532 20.5467C17.5752 19.8267 17.846 19.899 18.5165 19.9154C20.1167 19.9546 21.7555 19.6106 23.1912 18.8962C24.2428 18.3729 25.1347 17.6315 25.9895 16.835Z" fill="rgb(180,150,202)" fill-rule="nonzero" />
			<g id="moon-crystal">
				<path id="Vector 889" d="M0.233363 10.4646C0.432205 9.30154 0.865128 8.12749 1.39512 7.07813C1.5299 6.81799 1.64582 6.55221 1.84296 6.33217C1.96038 6.20106 2.21166 6.15629 2.35478 6.25579C2.64767 6.45953 2.93748 6.67401 3.22879 6.8821L4.09391 7.49529C4.25926 7.61217 4.51285 7.7759 4.64824 7.91627C4.76827 8.09263 4.9437 8.49302 5.043 8.70351C5.30253 9.24617 5.55454 9.79236 5.7989 10.342C6.00786 10.8002 6.24211 11.252 6.43258 11.7157C6.51574 11.9181 6.50631 12.1861 6.3384 12.3323C5.85694 12.7515 5.43841 13.1392 5.00825 13.6142C4.66613 13.9932 4.34945 14.3943 4.0603 14.8151C3.86198 15.1306 3.63831 15.4574 3.4632 15.7853C2.65848 17.2915 2.35205 18.6177 2.16931 20.2904C2.01802 20.0535 1.87312 19.8126 1.7348 19.5679C0.457527 17.2799 -0.189562 14.3594 0.0487475 11.7499C0.0847193 11.3559 0.127073 10.8406 0.233363 10.4646Z" fill="rgb(180,150,202)" fill-rule="nonzero" />
				<path id="Vector 890" d="M0.233363 10.4644C0.343352 10.571 2.14069 11.0765 2.46224 11.2021C2.47497 11.2107 2.48769 11.2193 2.50041 11.2279C2.56711 11.4144 2.64523 11.5956 2.72433 11.7771L3.69566 13.9725C3.77414 14.1484 3.98229 14.6735 4.0603 14.8149C3.86198 15.1304 3.63831 15.4572 3.4632 15.785C2.65848 17.2913 2.35205 18.6175 2.16931 20.2902C2.01802 20.0533 1.87312 19.8124 1.7348 19.5677C0.457527 17.2797 -0.189562 14.3592 0.0487475 11.7496C0.0847193 11.3557 0.127073 10.8404 0.233363 10.4644Z" fill="rgb(136,85,158)" fill-rule="nonzero" />
				<path id="Vector 891" d="M0.233398 10.4646C0.43224 9.30154 0.865164 8.12749 1.39515 7.07813C1.52994 6.81799 1.64586 6.55221 1.84299 6.33217C1.96042 6.20106 2.2117 6.15629 2.35481 6.25579C2.64771 6.45953 2.93752 6.67401 3.22883 6.8821L4.09395 7.49529C4.25929 7.61217 4.51289 7.7759 4.64828 7.91627C4.05984 8.92464 3.33695 9.90067 2.72136 10.896C2.66897 10.9808 2.55239 11.163 2.46228 11.2024C2.14073 11.0768 0.343388 10.5712 0.233398 10.4646Z" fill="rgb(203,179,207)" fill-rule="nonzero" />
			</g>
		</g>
		<g id="crystals-in-moon">
			<g id="crystal-3">
				<path id="Vector 892" d="M12.8331 4.40771C13.1284 4.68475 13.4278 5.0179 13.7102 5.31505C14.1349 5.76305 14.5622 6.20852 14.9922 6.65144C15.1438 6.80936 15.6141 7.3209 15.7477 7.42609C15.7686 7.65746 15.7506 8.05914 15.7431 8.2971L15.6983 9.68351C15.6761 10.5674 15.7091 11.4928 15.6464 12.3738C14.7529 13.2907 13.8724 14.282 13.0012 15.2275C12.7281 15.5431 12.3892 15.8872 12.1003 16.1938C11.5822 15.4472 11.0977 14.6778 10.6484 13.888C10.2568 13.2071 10.2395 13.2066 10.223 12.4103C10.1971 11.1678 10.104 9.89989 10.0978 8.6584C10.0814 8.53058 10.0844 8.33951 10.0828 8.20536C10.5023 7.5834 11.0024 6.93551 11.4392 6.32216C11.8926 5.68541 12.3452 5.01457 12.8331 4.40771Z" fill="rgb(203,179,207)" fill-rule="nonzero" />
				<path id="Vector 893" d="M15.7478 7.42578C15.7687 7.65715 15.7507 8.05884 15.7432 8.29679L15.6984 9.6832C15.6762 10.5671 15.7092 11.4925 15.6465 12.3735C14.7529 13.2904 13.8725 14.2817 13.0013 15.2272C13.0146 14.5012 12.9415 13.7659 12.9334 13.0367C12.9203 11.8657 12.9214 10.6969 12.88 9.52638C13.0548 9.41429 13.2931 9.22919 13.4651 9.10361L14.579 8.29009L15.2691 7.78899C15.4206 7.68047 15.6183 7.55323 15.7478 7.42578Z" fill="rgb(136,85,158)" fill-rule="nonzero" />
				<path id="Vector 894" d="M12.8331 4.40771C12.8048 5.50807 12.8559 6.62077 12.8448 7.72291C12.8388 8.32208 12.8747 8.92719 12.8613 9.52652C12.2905 9.25867 11.7215 8.98675 11.1545 8.71081C10.831 8.55447 10.4057 8.36328 10.1023 8.19524C10.1023 8.3257 10.1085 8.53408 10.0978 8.6584C10.0814 8.53058 10.0844 8.33951 10.0828 8.20536C10.5023 7.5834 11.0024 6.93551 11.4392 6.32216C11.8926 5.68541 12.3452 5.01457 12.8331 4.40771Z" fill="rgb(136,85,158)" fill-rule="nonzero" />
			</g>
			<g id="crystal-2">
				<path id="Vector 896" d="M16.218 12.9746C16.991 13.5484 17.7526 14.1625 18.5204 14.7484L18.5473 14.7824C18.2265 16.222 17.7778 17.6265 17.4575 19.0333C16.6886 18.9728 15.626 18.5554 14.9395 18.214C14.5948 18.0394 14.2568 17.8519 13.9262 17.6518C13.6998 17.5147 12.8927 17.0105 12.8374 16.7861C12.946 16.546 13.8449 15.5858 14.0723 15.3341L15.1249 14.1596C15.402 13.8567 15.9355 13.2141 16.218 12.9746Z" fill="rgb(180,150,202)" fill-rule="nonzero" />
				<path id="Vector 897" d="M14.9395 18.2141C14.5948 18.0395 14.2568 17.8519 13.9262 17.6519C13.6998 17.5148 12.8927 17.0105 12.8374 16.7861C12.946 16.5461 13.8449 15.5858 14.0723 15.3341L15.1249 14.1597C15.3863 14.5971 15.8439 15.3037 16.047 15.7507L15.3354 17.3133C15.2081 17.5943 15.0455 17.9281 14.9395 18.2141Z" fill="rgb(136,85,158)" fill-rule="nonzero" />
				<path id="Vector 898" d="M16.2181 12.9746C16.9912 13.5484 17.7527 14.1625 18.5206 14.7484C18.4002 14.8449 16.1982 15.7298 16.0471 15.7506C15.844 15.3037 15.3864 14.597 15.125 14.1596C15.4021 13.8567 15.9356 13.2141 16.2181 12.9746Z" fill="rgb(203,179,207)" fill-rule="nonzero" />
			</g>
			<g id="crystal-1">
				<path id="Vector 899" d="M22.7068 13.8764L22.7621 13.8691C22.8302 13.9226 23.5711 16.7627 23.6828 17.119C23.5688 17.2817 22.8529 18.1847 22.7503 18.2474C22.0187 18.6947 20.7471 18.9838 19.904 19.0519C19.6971 19.1013 18.4712 19.1501 18.2806 19.0829C18.2808 18.912 19.3828 14.9398 19.4717 14.7968C19.7159 14.7013 20.1222 14.6097 20.3858 14.5325L22.7068 13.8764Z" fill="rgb(203,179,207)" fill-rule="nonzero" />
				<path id="Vector 900" d="M19.904 19.0519C19.6971 19.1014 18.4712 19.1501 18.2806 19.083C18.2808 18.9121 19.3828 14.9399 19.4717 14.7969C19.913 15.532 20.456 16.322 20.9146 17.0651C20.7651 17.3025 19.7535 18.8774 19.7431 19.0305C19.8001 19.0596 19.8399 19.0527 19.904 19.0519Z" fill="rgb(136,85,158)" fill-rule="nonzero" />
				<path id="Vector 901" d="M22.7068 13.8764L22.7621 13.8691C22.8302 13.9226 23.5711 16.7627 23.6828 17.119C22.7605 17.0636 21.8235 17.113 20.9207 17.0671C21.0361 16.8523 21.1694 16.6447 21.2911 16.4327L22.2206 14.8251C22.3216 14.6521 22.6919 14.0403 22.7338 13.9007L22.7068 13.8764Z" fill="rgb(136,85,158)" fill-rule="nonzero" />
			</g>
		</g>
	</g>
	<path id="" d="M56.6406 5.67871L59.6777 5.67871L63.7988 16.5381L63.9209 16.5381L68.042 5.67871L71.0791 5.67871L71.0791 20L68.8623 20L68.8623 11.9824L68.9795 9.39941L68.8623 9.39941L64.7607 20L62.959 20L58.8623 9.39941L58.7402 9.39941L58.8623 11.9824L58.8623 20L56.6406 20L56.6406 5.67871ZM78.7796 20.3223Q77.2415 20.3223 76.0208 19.6143Q74.8001 18.9014 74.1165 17.6611Q73.4378 16.4209 73.4378 14.9023Q73.4378 13.3789 74.1165 12.1387Q74.8001 10.8984 76.0208 10.1904Q77.2415 9.48242 78.7796 9.48242Q80.3177 9.48242 81.5384 10.2002Q82.7591 10.918 83.4378 12.1582Q84.1214 13.3984 84.1214 14.9023Q84.1214 16.4209 83.4378 17.6611Q82.7591 18.9014 81.5384 19.6143Q80.3177 20.3223 78.7796 20.3223ZM78.7796 18.3008Q79.6194 18.3008 80.3372 17.8906Q81.0598 17.4805 81.4895 16.7139Q81.9192 15.9424 81.9192 14.9023Q81.9192 13.8623 81.4895 13.1006Q81.0598 12.3389 80.3372 11.9287Q79.6194 11.5186 78.7796 11.5186Q77.9397 11.5186 77.2171 11.9287Q76.4993 12.3389 76.0696 13.1006Q75.6399 13.8623 75.6399 14.9023Q75.6399 15.9424 76.0696 16.7139Q76.4993 17.4805 77.2171 17.8906Q77.9397 18.3008 78.7796 18.3008ZM90.9196 20.3223Q89.3815 20.3223 88.1608 19.6143Q86.9401 18.9014 86.2565 17.6611Q85.5778 16.4209 85.5778 14.9023Q85.5778 13.3789 86.2565 12.1387Q86.9401 10.8984 88.1608 10.1904Q89.3815 9.48242 90.9196 9.48242Q92.4577 9.48242 93.6784 10.2002Q94.8991 10.918 95.5778 12.1582Q96.2614 13.3984 96.2614 14.9023Q96.2614 16.4209 95.5778 17.6611Q94.8991 18.9014 93.6784 19.6143Q92.4577 20.3223 90.9196 20.3223ZM90.9196 18.3008Q91.7594 18.3008 92.4772 17.8906Q93.1998 17.4805 93.6295 16.7139Q94.0592 15.9424 94.0592 14.9023Q94.0592 13.8623 93.6295 13.1006Q93.1998 12.3389 92.4772 11.9287Q91.7594 11.5186 90.9196 11.5186Q90.0797 11.5186 89.3571 11.9287Q88.6393 12.3389 88.2096 13.1006Q87.7799 13.8623 87.7799 14.9023Q87.7799 15.9424 88.2096 16.7139Q88.6393 17.4805 89.3571 17.8906Q90.0797 18.3008 90.9196 18.3008ZM98.0793 9.7998L100.179 9.7998L100.179 11.1377L100.281 11.1377Q100.721 10.4199 101.59 9.95117Q102.459 9.48242 103.441 9.48242Q105.301 9.48242 106.268 10.5713Q107.239 11.6602 107.239 13.54L107.239 20L105.042 20L105.042 13.8379Q105.042 12.6416 104.451 12.0801Q103.861 11.5186 102.821 11.5186Q102.078 11.5186 101.497 11.9287Q100.921 12.3389 100.599 13.0225Q100.281 13.7012 100.281 14.4824L100.281 20L98.0793 20L98.0793 9.7998ZM110.081 5.67871L113.118 5.67871L117.239 16.5381L117.361 16.5381L121.482 5.67871L124.519 5.67871L124.519 20L122.302 20L122.302 11.9824L122.419 9.39941L122.302 9.39941L118.201 20L116.399 20L112.302 9.39941L112.18 9.39941L112.302 11.9824L112.302 20L110.081 20L110.081 5.67871ZM132.22 20.3223Q130.681 20.3223 129.461 19.6143Q128.24 18.9014 127.556 17.6611Q126.878 16.4209 126.878 14.9023Q126.878 13.3789 127.556 12.1387Q128.24 10.8984 129.461 10.1904Q130.681 9.48242 132.22 9.48242Q133.758 9.48242 134.978 10.2002Q136.199 10.918 136.878 12.1582Q137.561 13.3984 137.561 14.9023Q137.561 16.4209 136.878 17.6611Q136.199 18.9014 134.978 19.6143Q133.758 20.3223 132.22 20.3223ZM132.22 18.3008Q133.059 18.3008 133.777 17.8906Q134.5 17.4805 134.93 16.7139Q135.359 15.9424 135.359 14.9023Q135.359 13.8623 134.93 13.1006Q134.5 12.3389 133.777 11.9287Q133.059 11.5186 132.22 11.5186Q131.38 11.5186 130.657 11.9287Q129.939 12.3389 129.51 13.1006Q129.08 13.8623 129.08 14.9023Q129.08 15.9424 129.51 16.7139Q129.939 17.4805 130.657 17.8906Q131.38 18.3008 132.22 18.3008ZM139.379 9.7998L141.479 9.7998L141.479 11.1377L141.581 11.1377Q142.021 10.4199 142.89 9.95117Q143.759 9.48242 144.741 9.48242Q146.601 9.48242 147.568 10.5713Q148.539 11.6602 148.539 13.54L148.539 20L146.342 20L146.342 13.8379Q146.342 12.6416 145.751 12.0801Q145.161 11.5186 144.121 11.5186Q143.378 11.5186 142.797 11.9287Q142.221 12.3389 141.899 13.0225Q141.581 13.7012 141.581 14.4824L141.581 20L139.379 20L139.379 9.7998ZM155.682 20.3223Q154.178 20.3223 152.987 19.624Q151.801 18.9209 151.127 17.6904Q150.458 16.46 150.458 14.9219Q150.458 13.4619 151.107 12.2119Q151.761 10.9619 152.919 10.2246Q154.081 9.48242 155.56 9.48242Q157.098 9.48242 158.226 10.1611Q159.359 10.8398 159.95 12.0215Q160.541 13.1982 160.541 14.6777Q160.541 14.9609 160.482 15.3809L152.66 15.3809Q152.782 16.8018 153.671 17.5732Q154.559 18.3398 155.741 18.3398Q156.678 18.3398 157.367 17.9102Q158.06 17.4805 158.48 16.7383L160.341 17.6221Q159.618 18.8818 158.456 19.6045Q157.299 20.3223 155.682 20.3223ZM158.3 13.7012Q158.26 13.1592 157.958 12.6318Q157.66 12.0996 157.05 11.7432Q156.439 11.3818 155.56 11.3818Q154.501 11.3818 153.768 12.0117Q153.041 12.6416 152.758 13.7012L158.3 13.7012ZM166.419 20.1611Q165.74 20.1611 165.14 19.9414Q164.539 19.7217 164.158 19.3604Q163.299 18.501 163.299 17.0215L163.299 11.7383L161.522 11.7383L161.522 9.7998L163.299 9.7998L163.299 6.91895L165.501 6.91895L165.501 9.7998L167.981 9.7998L167.981 11.7383L165.501 11.7383L165.501 16.5381Q165.501 17.3584 165.818 17.7002Q166.121 18.1006 166.858 18.1006Q167.2 18.1006 167.459 18.0127Q167.718 17.9199 168.021 17.7197L168.021 19.8584Q167.361 20.1611 166.419 20.1611Z" fill="rgb(180,150,202)" fill-rule="nonzero" />
</svg>
