<svg viewBox="0 0 219 107" xmlns="http://www.w3.org/2000/svg" xmlns:xlink="http://www.w3.org/1999/xlink" width="219.000000" height="107.000000" fill="none">
	<rect id="svg 4" width="219.000000" height="107.000000" x="0.000000" y="0.000000" />
	<g id="yt-logo">
		<path id="Vector 907" d="M165.283 107C194.935 107 219 83.032 219 53.5C219 23.968 194.935 0 165.283 0C135.631 0 111.566 23.968 111.566 53.5C111.566 83.032 135.631 107 165.283 107Z" fill="rgb(180,150,202)" fill-rule="evenodd" />
		<path id="Vector 908" d="M165.283 84.3655C148.16 84.3655 134.292 70.5539 134.292 53.5002C134.292 36.4466 148.16 22.6348 165.283 22.6348C182.406 22.6348 196.274 36.4466 196.274 53.5002C196.274 70.5539 182.406 84.3655 165.283 84.3655Z" fill-rule="evenodd" stroke="rgb(255,255,255)" stroke-width="5.000000" />
		<path id="Vector 909" d="M184.91 53.5002L153.92 36.0098L153.92 70.9905L184.91 53.5002Z" fill="rgb(255,255,255)" fill-rule="evenodd" />
	</g>
	<g id="entire-moon">
		<g id="moon-itself">
			<path id="moon-fragment" d="M36.8375 49.228C37.2127 49.9911 37.6751 51.4768 37.9819 52.326C38.6282 54.1602 39.3401 55.9708 40.1164 57.7543C43.829 66.3736 50.5138 73.3882 58.9647 77.5327C60.0742 78.0885 61.2082 78.5946 62.3632 79.0494C63.3018 79.4132 64.2628 79.7372 65.1714 80.1666C65.8164 80.3816 66.7147 81.4644 66.4972 82.2114C65.9406 84.124 64.4761 86.6077 63.5686 88.344L59.5072 96.1184L56.5376 101.726C53.6427 107.266 54.0043 107.503 47.5126 106.6C46.8834 106.545 46.2566 106.433 45.6339 106.331C39.8801 105.38 24.5503 100.903 21.1293 96.0622C20.3923 95.0194 19.8982 93.794 19.4277 92.6137C17.2569 87.222 16.6513 81.3316 17.6798 75.6138C19.4203 66.0982 25.3373 57.8548 32.9168 52.0149C34.189 51.0346 35.5152 50.1386 36.8375 49.228Z" fill="rgb(180,150,202)" fill-rule="nonzero" />
			<path id="moon-fragment-2" d="M52.9564 0.0945205C57.9036 -0.229843 64.4337 0.285962 69.2321 1.5595C69.5274 1.63792 69.9896 1.77268 70.1241 2.03C70.0885 2.11243 70.0531 2.19502 70.0175 2.27762C69.0185 2.60867 67.2667 3.03251 66.321 3.32494C61.0974 4.93973 55.8146 8.07953 51.7941 11.7676C44.7984 18.2498 40.0048 26.7404 38.0796 36.0597C37.5858 38.5121 37.3335 41.2945 37.2292 43.7902C35.2648 44.762 32.3448 47.2239 30.6637 45.2159C30.0714 44.1298 29.4388 42.618 28.9173 41.4665C27.8246 39.1099 26.7741 36.734 25.766 34.3404C25.1335 32.8642 24.4553 31.3131 23.756 29.8752C23.2936 28.9245 21.391 27.76 20.4807 27.1093L15.8311 23.7183C13.7338 22.1838 10.8121 20.9564 13.2511 18.2431C23.6849 6.63595 37.548 1.04604 52.9564 0.0945205Z" fill="rgb(180,150,202)" fill-rule="nonzero" />
			<path id="moon-fragment-3" d="M107.39 69.2822C107.405 69.3342 107.419 69.3864 107.434 69.4386C105.357 75.1012 103.533 79.0447 99.9809 84.0315C91.7231 95.8439 79.026 103.839 64.7664 106.204C64.1821 106.302 61.8872 106.685 61.542 106.441C61.0728 105.617 60.9728 105.201 61.4048 104.295C61.8316 103.4 62.3143 102.533 62.7518 101.643L67.0553 93.0339L70.0757 87.0085C70.456 86.2447 70.9536 85.3096 71.2914 84.5574C72.6219 81.5943 73.741 81.8919 76.5114 81.9595C83.1236 82.1206 89.8951 80.705 95.8277 77.765C100.173 75.6113 103.858 72.5603 107.39 69.2822Z" fill="rgb(180,150,202)" fill-rule="nonzero" />
			<g id="moon-crystal">
				<path id="Vector 889" d="M0.964273 43.066C1.7859 38.2797 3.57478 33.448 5.76472 29.1295C6.32166 28.0589 6.80066 26.9651 7.61524 26.0595C8.10046 25.52 9.13875 25.3358 9.73011 25.7452C10.9404 26.5837 12.1379 27.4663 13.3416 28.3227L16.9163 30.8462C17.5996 31.3273 18.6474 32.0011 19.2069 32.5787C19.7029 33.3045 20.4278 34.9523 20.8381 35.8185C21.9104 38.0518 22.9518 40.2996 23.9615 42.5616C24.8249 44.4471 25.7929 46.3065 26.5799 48.2147C26.9235 49.0477 26.8846 50.1508 26.1907 50.7524C24.2013 52.4777 22.4719 54.0733 20.6945 56.0278C19.2808 57.5876 17.9723 59.2385 16.7774 60.9702C15.958 62.2686 15.0338 63.6136 14.3102 64.9627C10.9851 71.1615 9.71886 76.6192 8.96374 83.503C8.33862 82.5281 7.73986 81.5366 7.16831 80.5298C1.89054 71.1137 -0.783285 59.0949 0.201429 48.3555C0.350067 46.7342 0.525076 44.6134 0.964273 43.066Z" fill="rgb(180,150,202)" fill-rule="nonzero" />
				<path id="Vector 890" d="M0.964273 43.0649C1.41876 43.5037 8.8455 45.5843 10.1742 46.1012C10.2267 46.1365 10.2793 46.172 10.3319 46.2072C10.6075 46.9747 10.9303 47.7206 11.2571 48.4676L15.2707 57.5024C15.5951 58.2261 16.4551 60.3871 16.7774 60.9691C15.958 62.2675 15.0338 63.6125 14.3102 64.9616C10.9851 71.1604 9.71886 76.6181 8.96374 83.502C8.33862 82.527 7.73986 81.5355 7.16831 80.5287C1.89054 71.1126 -0.783285 59.0938 0.201429 48.3544C0.350067 46.7331 0.525076 44.6123 0.964273 43.0649Z" fill="rgb(136,85,158)" fill-rule="nonzero" />
				<path id="Vector 891" d="M0.964478 43.066C1.78611 38.2797 3.57498 33.448 5.76493 29.1295C6.32186 28.0589 6.80087 26.9651 7.61544 26.0595C8.10066 25.52 9.13895 25.3358 9.73031 25.7452C10.9406 26.5837 12.1381 27.4663 13.3418 28.3227L16.9165 30.8462C17.5998 31.3273 18.6476 32.0011 19.2071 32.5787C16.7756 36.7286 13.7886 40.7453 11.2449 44.8417C11.0284 45.1903 10.5467 45.9403 10.1744 46.1023C8.8457 45.5854 1.41896 43.5048 0.964478 43.066Z" fill="rgb(203,179,207)" fill-rule="nonzero" />
			</g>
		</g>
		<g id="crystals-in-moon">
			<g id="crystal-3">
				<path id="Vector 892" d="M53.0271 18.1396C54.2473 19.2798 55.4846 20.6508 56.6516 21.8737C58.4064 23.7174 60.1722 25.5507 61.949 27.3735C62.5755 28.0234 64.5187 30.1285 65.0708 30.5614C65.1569 31.5136 65.0828 33.1667 65.0516 34.146L64.8667 39.8516C64.775 43.4891 64.9112 47.2974 64.652 50.923C60.9599 54.6965 57.3219 58.776 53.7218 62.6673C52.5935 63.9661 51.1932 65.3823 49.9993 66.6439C47.8584 63.5714 45.8567 60.4051 44.0001 57.1547C42.3817 54.3524 42.3105 54.3506 42.242 51.0733C42.1352 45.9601 41.7504 40.7421 41.7249 35.6328C41.657 35.1068 41.6696 34.3205 41.6627 33.7684C43.3962 31.2088 45.4628 28.5425 47.2675 26.0183C49.1412 23.3978 51.0112 20.6371 53.0271 18.1396Z" fill="rgb(203,179,207)" fill-rule="nonzero" />
				<path id="Vector 893" d="M65.0712 30.5601C65.1573 31.5122 65.0833 33.1653 65.052 34.1446L64.8671 39.8502C64.7754 43.4878 64.9116 47.296 64.6525 50.9217C60.9603 54.6952 57.3223 58.7746 53.7222 62.666C53.7775 59.678 53.4753 56.652 53.4417 53.6512C53.3876 48.8322 53.3922 44.0219 53.2212 39.2048C53.9436 38.7435 54.9283 37.9818 55.6389 37.465L60.2415 34.117L63.093 32.0548C63.7193 31.6082 64.5359 31.0846 65.0712 30.5601Z" fill="rgb(136,85,158)" fill-rule="nonzero" />
				<path id="Vector 894" d="M53.0271 18.1396C52.9104 22.668 53.1214 27.2472 53.0757 31.783C53.051 34.2488 53.1993 36.739 53.144 39.2055C50.7851 38.1032 48.4341 36.9841 46.0912 35.8485C44.7544 35.2051 42.9971 34.4183 41.7435 33.7268C41.7433 34.2637 41.769 35.1212 41.7249 35.6328C41.657 35.1068 41.6696 34.3205 41.6627 33.7684C43.3962 31.2088 45.4628 28.5425 47.2675 26.0183C49.1412 23.3978 51.0112 20.6371 53.0271 18.1396Z" fill="rgb(136,85,158)" fill-rule="nonzero" />
			</g>
			<g id="crystal-2">
				<path id="Vector 896" d="M67.0139 53.3955C70.2083 55.7567 73.3551 58.284 76.5279 60.6955L76.639 60.8351C75.3133 66.7598 73.4593 72.5399 72.1358 78.3292C68.9588 78.0802 64.5678 76.3624 61.7314 74.9578C60.3068 74.2392 58.9101 73.4674 57.544 72.6441C56.6088 72.0798 53.2738 70.0047 53.0452 69.0811C53.4938 68.0933 57.2082 64.1414 58.1479 63.1057L62.4973 58.2723C63.6422 57.0255 65.8468 54.3813 67.0139 53.3955Z" fill="rgb(180,150,202)" fill-rule="nonzero" />
				<path id="Vector 897" d="M61.7314 74.9579C60.3068 74.2393 58.9101 73.4675 57.544 72.6442C56.6088 72.0799 53.2738 70.0049 53.0452 69.0813C53.4938 68.0935 57.2082 64.1416 58.1479 63.1058L62.4973 58.2725C63.5775 60.0725 65.4684 62.9807 66.3075 64.8201L63.3671 71.2508C62.8411 72.4075 62.1693 73.7812 61.7314 74.9579Z" fill="rgb(136,85,158)" fill-rule="nonzero" />
				<path id="Vector 898" d="M67.0143 53.3955C70.2088 55.7567 73.3555 58.284 76.5284 60.6955C76.031 61.0926 66.9323 64.7343 66.3079 64.8199C65.4688 62.9806 63.578 60.0724 62.4977 58.2723C63.6426 57.0255 65.8472 54.3813 67.0143 53.3955Z" fill="rgb(203,179,207)" fill-rule="nonzero" />
			</g>
			<g id="crystal-1">
				<path id="Vector 899" d="M93.8263 57.1066L94.0547 57.0767C94.3362 57.2965 97.3975 68.985 97.8592 70.4509C97.3883 71.1206 94.4297 74.8367 94.0058 75.0948C90.9828 76.9359 85.7287 78.1253 82.2449 78.4057C81.39 78.6092 76.3243 78.8098 75.537 78.5334C75.5378 77.83 80.091 61.483 80.4585 60.8944C81.4676 60.5012 83.1465 60.1242 84.2358 59.8068L93.8263 57.1066Z" fill="rgb(203,179,207)" fill-rule="nonzero" />
				<path id="Vector 900" d="M82.2449 78.4063C81.39 78.6097 76.3244 78.8104 75.537 78.534C75.5378 77.8306 80.091 61.4836 80.4585 60.895C82.282 63.9205 84.5259 67.1716 86.4209 70.2298C85.8028 71.2067 81.6228 77.6878 81.5801 78.3182C81.8154 78.4377 81.9799 78.4093 82.2449 78.4063Z" fill="rgb(136,85,158)" fill-rule="nonzero" />
				<path id="Vector 901" d="M93.8262 57.1066L94.0546 57.0767C94.3361 57.2965 97.3974 68.9849 97.8591 70.4509C94.0481 70.2232 90.1764 70.4264 86.4457 70.2374C86.9228 69.3536 87.4736 68.4992 87.9766 67.6266L91.8172 61.011C92.2345 60.2987 93.7644 57.7812 93.9378 57.2066L93.8262 57.1066Z" fill="rgb(136,85,158)" fill-rule="nonzero" />
			</g>
		</g>
	</g>
</svg>
